<svg id="Capa_1" enable-background="new 0 0 512 512" height="512" viewBox="0 0 512 512" width="512" xmlns="http://www.w3.org/2000/svg"><g><g><path d="m256 321-66.057 34.444-3.962 51.735h140.038l-3.961-51.735z" fill="#7a8c98"/><path d="m153.558 386.773c-11.83 0-21.42 9.59-21.42 21.42 0 11.83 9.59 21.42 21.42 21.42h186.884c11.83 0 21.42-9.59 21.42-21.42s-9.59-21.42-21.42-21.42z" fill="#9facba"/><path d="m358.442 386.773h-22c11.83 0 21.42 9.59 21.42 21.42 0 11.83-9.59 21.42-21.42 21.42h22c11.83 0 21.42-9.59 21.42-21.42 0-11.83-9.59-21.42-21.42-21.42z" fill="#8d9ca8"/><path d="m191.627 321v12.444l-1.684 22h132.115l-1.685-22v-12.444z" fill="#596c76"/><path d="m466.999 304.364v-267.783c0-16.061-13.02-29.081-29.081-29.081h-381.836c-16.061 0-29.081 13.02-29.081 29.081v267.783c0 16.061 13.02 29.081 29.081 29.081h381.837c16.06-.001 29.08-13.021 29.08-29.081z" fill="#9facba"/><path d="m455.918 7.5h-22c16.061 0 29.081 13.02 29.081 29.081v267.783c0 16.061-13.02 29.081-29.081 29.081h22c16.061 0 29.081-13.02 29.081-29.081v-267.783c0-16.061-13.02-29.081-29.081-29.081z" fill="#8d9ca8"/><path d="m376.167 485.095c0-10.717-8.688-19.405-19.404-19.406h-329.857c-10.718 0-19.406 8.688-19.406 19.406 0 10.717 8.688 19.405 19.406 19.405h329.856c10.717 0 19.405-8.688 19.405-19.405z" fill="#9facba"/><path d="m374.761 465.689h-22c10.717 0 19.406 8.688 19.406 19.406 0 10.717-8.688 19.405-19.406 19.405h22c10.717 0 19.406-8.688 19.406-19.405 0-10.718-8.688-19.406-19.406-19.406z" fill="#8d9ca8"/><path d="m456.487 447.961-1.051-.27c-16.674 4.434-28.962 19.629-28.962 37.699v4.599c0 8.014 6.496 14.51 14.51 14.51h29.006c8.014 0 14.51-6.496 14.51-14.51v-4.599c0-17.724-11.825-32.678-28.013-37.429z" fill="#7a8c98"/><path d="m465.487 446.378c-3.821 0-7.51.559-11 1.583 16.188 4.75 28.013 19.705 28.013 37.43v4.599c0 8.014-6.496 14.51-14.51 14.51h22c8.014 0 14.51-6.496 14.51-14.51v-4.599c0-21.546-17.467-39.013-39.013-39.013z" fill="#596c76"/><path d="m436.842 295.287v-249.629c0-4.418-3.582-8-8-8h-363.684c-4.418 0-8 3.582-8 8v249.629c0 4.418 3.582 8 8 8h363.688c4.417-.003 7.996-3.583 7.996-8z" fill="#eaf6ff"/><path d="m446.842 37.658h-20c4.418 0 8 3.582 8 8v249.629c0 4.418-3.582 8-8 8h20c4.418 0 8-3.582 8-8v-249.629c0-4.419-3.582-8-8-8z" fill="#d8ecfe"/><path d="m302.189 104.731h-199.86v125.859c0 7.18 5.82 13 13 13h186.859v-99.359-39.5z" fill="#6cabca"/><path d="m400.087 276.46h-128.174c-5.293 0-9.584-4.291-9.584-9.584v-92.787h147.341v92.787c.001 5.293-4.29 9.584-9.583 9.584z" fill="#fe99a0"/><path d="m302.189 104.732h-199.86v-27.5c0-7.18 5.82-13 13-13h173.859c7.18 0 13 5.82 13 13v27.5z" fill="#3692bc"/><path d="m409.671 174.089h-147.342v-20.274c0-5.293 4.291-9.584 9.584-9.584h128.173c5.293 0 9.584 4.291 9.584 9.584v20.274z" fill="#fe646f"/><path d="m371.837 242.989h-71.673c-1.657 0-3-1.343-3-3v-29.43c0-1.657 1.343-3 3-3h71.673c1.657 0 3 1.343 3 3v29.43c0 1.657-1.343 3-3 3z" fill="#c4e2ff"/></g><g><path d="m56.082 340.944h127.45l-2.935 38.329h-27.038c-15.946 0-28.92 12.974-28.92 28.92s12.974 28.92 28.92 28.92h204.884c15.946 0 28.92-12.974 28.92-28.92s-12.974-28.92-28.92-28.92h-27.038l-2.935-38.329h127.449c20.17 0 36.581-16.41 36.581-36.581v-209.465c0-4.143-3.358-7.5-7.5-7.5s-7.5 3.357-7.5 7.5v209.465c0 11.899-9.681 21.581-21.581 21.581-4.484 0-387.498 0-399.837 0-11.899 0-21.581-9.682-21.581-21.581v-267.782c0-11.899 9.681-21.581 21.581-21.581h399.837c11.899 0 21.581 9.682 21.581 21.581v23.317c0 4.143 3.358 7.5 7.5 7.5s7.5-3.357 7.5-7.5v-23.317c-.001-20.171-16.411-36.581-36.582-36.581h-399.836c-20.17 0-36.581 16.41-36.581 36.581v267.782c0 20.171 16.41 36.581 36.581 36.581zm142.493 0h114.85l2.935 38.329h-120.72zm159.867 53.329c7.675 0 13.92 6.244 13.92 13.92s-6.245 13.92-13.92 13.92h-204.884c-7.675 0-13.92-6.244-13.92-13.92s6.245-13.92 13.92-13.92z"/><path d="m65.158 30.158c-8.547 0-15.5 6.953-15.5 15.5v249.629c0 8.547 6.953 15.5 15.5 15.5h381.684c8.547 0 15.5-6.953 15.5-15.5v-249.629c0-8.547-6.953-15.5-15.5-15.5zm382.184 15.5v249.629c0 .275-.224.5-.5.5h-381.684c-.276 0-.5-.225-.5-.5v-249.629c0-.275.224-.5.5-.5h381.684c.276 0 .5.225.5.5z"/><path d="m374.761 458.189h-347.856c-14.835 0-26.905 12.07-26.905 26.906s12.07 26.905 26.905 26.905h49.856c4.142 0 7.5-3.357 7.5-7.5s-3.358-7.5-7.5-7.5h-49.856c-6.564 0-11.905-5.341-11.905-11.905s5.341-11.905 11.905-11.905h347.856c6.564 0 11.905 5.341 11.905 11.905 0 6.498-5.237 11.904-11.905 11.905h-263c-4.142 0-7.5 3.357-7.5 7.5s3.358 7.5 7.5 7.5h263.001c15.26-.002 26.904-12.376 26.904-26.905.001-14.836-12.069-26.906-26.905-26.906z"/><path d="m465.487 438.878c-25.647 0-46.513 20.866-46.513 46.514v4.599c0 12.136 9.874 22.01 22.01 22.01h49.006c12.136 0 22.01-9.874 22.01-22.01v-4.599c0-25.648-20.866-46.514-46.513-46.514zm31.513 51.112c0 3.865-3.145 7.01-7.01 7.01h-49.006c-3.865 0-7.01-3.145-7.01-7.01v-4.599c0-17.377 14.137-31.514 31.513-31.514s31.513 14.137 31.513 31.514z"/><path d="m400.086 136.731h-90.398c0-9.56 0-52.626 0-59.5 0-11.304-9.196-20.5-20.5-20.5h-173.858c-11.304 0-20.5 9.196-20.5 20.5v153.359c0 11.304 9.196 20.5 20.5 20.5h139.5v15.785c0 9.42 7.664 17.084 17.084 17.084h128.173c9.42 0 17.084-7.664 17.084-17.084v-92.787-20.273c-.001-9.419-7.665-17.084-17.085-17.084zm-290.256-59.5c0-3.033 2.467-5.5 5.5-5.5h173.859c3.033 0 5.5 2.467 5.5 5.5v20h-184.859zm144.999 76.584v82.275h-139.5c-3.033 0-5.5-2.467-5.5-5.5v-118.359h184.859v24.5h-22.775c-9.42 0-17.084 7.665-17.084 17.084zm147.341 113.061c0 1.149-.935 2.084-2.084 2.084h-128.172c-1.149 0-2.084-.935-2.084-2.084v-85.287h132.34zm0-100.287h-132.34v-12.773c0-1.149.935-2.084 2.084-2.084h128.173c1.149 0 2.084.935 2.084 2.084v12.773z"/><path d="m132.138 147.661h41.528c4.142 0 7.5-3.357 7.5-7.5s-3.358-7.5-7.5-7.5h-41.528c-4.142 0-7.5 3.357-7.5 7.5s3.358 7.5 7.5 7.5z"/><path d="m223 166.661h-90.862c-4.142 0-7.5 3.357-7.5 7.5s3.358 7.5 7.5 7.5h90.862c4.142 0 7.5-3.357 7.5-7.5s-3.358-7.5-7.5-7.5z"/><path d="m173.667 200.661h-41.528c-4.142 0-7.5 3.357-7.5 7.5s3.358 7.5 7.5 7.5h41.528c4.142 0 7.5-3.357 7.5-7.5s-3.358-7.5-7.5-7.5z"/><path d="m300.163 250.489h71.674c5.79 0 10.5-4.71 10.5-10.5v-29.43c0-5.79-4.71-10.5-10.5-10.5h-71.674c-5.79 0-10.5 4.71-10.5 10.5v29.43c0 5.79 4.711 10.5 10.5 10.5zm4.5-35.429h62.674v20.43h-62.674z"/></g></g></svg>