<?xml version="1.0" encoding="utf-8"?>
<!-- Generator: Adobe Illustrator 19.2.1, SVG Export Plug-In . SVG Version: 6.00 Build 0)  -->
<svg xmlns="http://www.w3.org/2000/svg" xmlns:xlink="http://www.w3.org/1999/xlink" version="1.1" id="Layer" x="0px" y="0px" width="512" height="512" viewBox="0 0 64 64" enable-background="new 0 0 64 64" xml:space="preserve">
<path fill="#CCE4FF" d="M46,10H18c-4.42,0-8,3.58-8,8v28c0,4.42,3.58,8,8,8h8V42h-4v-8h4v-8c0-4.42,3.58-8,8-8h8v8h-8v8h8l-2,8h-6  v12h12c4.42,0,8-3.58,8-8V18C54,13.58,50.42,10,46,10z"/>
<path fill="#007AFF" d="M46,8H18C12.486,8,8,12.486,8,18v28c0,5.514,4.486,10,10,10h6h4h4h4h10c5.514,0,10-4.486,10-10V18  C56,12.486,51.514,8,46,8z M32,40v12h-4V40h-4v-4h4V26c0-3.309,2.691-6,6-6h6v4h-8v12h7.438l-1,4H32z M52,46c0,3.309-2.691,6-6,6H36  v-8h5.561l3-12H36v-4h8V16H34c-5.514,0-10,4.486-10,10v6h-4v12h4v8h-6c-3.309,0-6-2.691-6-6V18c0-3.309,2.691-6,6-6h28  c3.309,0,6,2.691,6,6V46z"/>
</svg>
