<?xml version="1.0" encoding="UTF-8" standalone="no" ?>
<!DOCTYPE svg PUBLIC "-//W3C//DTD SVG 1.1//EN" "http://www.w3.org/Graphics/SVG/1.1/DTD/svg11.dtd">
<svg xmlns="http://www.w3.org/2000/svg" xmlns:xlink="http://www.w3.org/1999/xlink" version="1.1" width="349.99" height="349.99" viewBox="0 0 349.99 349.99" xml:space="preserve">
<desc>Created with Fabric.js 1.7.22</desc>
<defs>
</defs>
<g id="icon" style="stroke: none; stroke-width: 1; stroke-dasharray: none; stroke-linecap: butt; stroke-linejoin: miter; stroke-miterlimit: 10; fill: none; fill-rule: nonzero; opacity: 1;" transform="translate(-1.9443888888888807 -1.9443888888888807) scale(3.89 3.89)" >
	<path d="M 45 0 C 27.395 0 13.123 14.272 13.123 31.877 c 0 7.86 2.858 15.043 7.573 20.6 L 45 81.101 l 24.304 -28.624 c 4.716 -5.558 7.573 -12.741 7.573 -20.6 C 76.877 14.272 62.605 0 45 0 z M 45 43.889 c -7.24 0 -13.11 -5.869 -13.11 -13.11 c 0 -7.24 5.869 -13.11 13.11 -13.11 s 13.11 5.869 13.11 13.11 C 58.11 38.02 52.24 43.889 45 43.889 z" style="stroke: none; stroke-width: 1; stroke-dasharray: none; stroke-linecap: butt; stroke-linejoin: miter; stroke-miterlimit: 10; fill: rgb(0,0,0); fill-rule: nonzero; opacity: 1;" transform=" matrix(1 0 0 1 0 0) " stroke-linecap="round" />
	<path d="M 58.958 71.559 L 45 82.839 L 31.057 71.556 c -9.329 1.65 -15.682 4.901 -15.682 8.645 c 0 5.412 13.263 9.8 29.625 9.8 c 16.361 0 29.625 -4.388 29.625 -9.8 C 74.625 76.458 68.278 73.209 58.958 71.559 z" style="stroke: none; stroke-width: 1; stroke-dasharray: none; stroke-linecap: butt; stroke-linejoin: miter; stroke-miterlimit: 10; fill: rgb(0,0,0); fill-rule: nonzero; opacity: 1;" transform=" matrix(1 0 0 1 0 0) " stroke-linecap="round" />
</g>
</svg>