<?xml version="1.0"?>
<svg xmlns="http://www.w3.org/2000/svg" xmlns:xlink="http://www.w3.org/1999/xlink" viewBox="0 0 64 64" width="512" height="512"><defs><linearGradient id="New_Gradient_Swatch_2" x1="32" y1="0.937" x2="32" y2="64.861" gradientUnits="userSpaceOnUse"><stop offset="0" stop-color="#fc5c7d"/><stop offset="0.129" stop-color="#f35e85"/><stop offset="0.343" stop-color="#d9659b"/><stop offset="0.616" stop-color="#b070bf"/><stop offset="0.934" stop-color="#777ff0"/><stop offset="1" stop-color="#6a82fb"/></linearGradient><linearGradient id="New_Gradient_Swatch_2-2" x1="24" y1="0.937" x2="24" y2="64.861" xlink:href="#New_Gradient_Swatch_2"/><linearGradient id="New_Gradient_Swatch_2-7" x1="40" y1="0.937" x2="40" y2="64.861" xlink:href="#New_Gradient_Swatch_2"/><linearGradient id="New_Gradient_Swatch_2-11" x1="49" y1="0.937" x2="49" y2="64.861" xlink:href="#New_Gradient_Swatch_2"/><linearGradient id="New_Gradient_Swatch_2-13" x1="11" y1="0.937" x2="11" y2="64.861" xlink:href="#New_Gradient_Swatch_2"/><linearGradient id="New_Gradient_Swatch_2-14" x1="17.5" y1="0.937" x2="17.5" y2="64.861" xlink:href="#New_Gradient_Swatch_2"/><linearGradient id="New_Gradient_Swatch_2-15" x1="15.5" y1="0.937" x2="15.5" y2="64.861" xlink:href="#New_Gradient_Swatch_2"/><linearGradient id="New_Gradient_Swatch_2-17" x1="14" y1="0.937" x2="14" y2="64.861" xlink:href="#New_Gradient_Swatch_2"/><linearGradient id="New_Gradient_Swatch_2-18" x1="50" y1="0.937" x2="50" y2="64.861" xlink:href="#New_Gradient_Swatch_2"/></defs><title>Mobile-App-Development-application-coding</title><g id="_001GradL" data-name="001GradL"><rect x="31" y="52" width="2" height="2" style="fill:url(#New_Gradient_Swatch_2)"/><path d="M22,23h4a1,1,0,0,0,1-1V18a1,1,0,0,0-1-1H22a1,1,0,0,0-1,1v4A1,1,0,0,0,22,23Zm1-4h2v2H23Z" style="fill:url(#New_Gradient_Swatch_2-2)"/><path d="M30,23h4a1,1,0,0,0,1-1V18a1,1,0,0,0-1-1H30a1,1,0,0,0-1,1v4A1,1,0,0,0,30,23Zm1-4h2v2H31Z" style="fill:url(#New_Gradient_Swatch_2)"/><path d="M27,30V26a1,1,0,0,0-1-1H22a1,1,0,0,0-1,1v4a1,1,0,0,0,1,1h4A1,1,0,0,0,27,30Zm-2-1H23V27h2Z" style="fill:url(#New_Gradient_Swatch_2-2)"/><path d="M30,31h4a1,1,0,0,0,1-1V26a1,1,0,0,0-1-1H30a1,1,0,0,0-1,1v4A1,1,0,0,0,30,31Zm1-4h2v2H31Z" style="fill:url(#New_Gradient_Swatch_2)"/><path d="M30,39h4a1,1,0,0,0,1-1V34a1,1,0,0,0-1-1H30a1,1,0,0,0-1,1v4A1,1,0,0,0,30,39Zm1-4h2v2H31Z" style="fill:url(#New_Gradient_Swatch_2)"/><path d="M38,39h4a1,1,0,0,0,1-1V34a1,1,0,0,0-1-1H38a1,1,0,0,0-1,1v4A1,1,0,0,0,38,39Zm1-4h2v2H39Z" style="fill:url(#New_Gradient_Swatch_2-7)"/><path d="M30,47h4a1,1,0,0,0,1-1V42a1,1,0,0,0-1-1H30a1,1,0,0,0-1,1v4A1,1,0,0,0,30,47Zm1-4h2v2H31Z" style="fill:url(#New_Gradient_Swatch_2)"/><path d="M38,47h4a1,1,0,0,0,1-1V42a1,1,0,0,0-1-1H38a1,1,0,0,0-1,1v4A1,1,0,0,0,38,47Zm1-4h2v2H39Z" style="fill:url(#New_Gradient_Swatch_2-7)"/><rect x="29" y="10" width="6" height="2" style="fill:url(#New_Gradient_Swatch_2)"/><path d="M44.474,26.851a1,1,0,0,0,.973.044l8-4a1,1,0,0,0,0-1.79l-8-4A1,1,0,0,0,44,18v8A1,1,0,0,0,44.474,26.851ZM46,19.618,50.764,22,46,24.382Z" style="fill:url(#New_Gradient_Swatch_2-11)"/><path d="M6,34V50a1,1,0,0,0,1,1H17v3a4,4,0,0,0,4,4H43a4,4,0,0,0,4-4V31H57a1,1,0,0,0,1-1V14a1,1,0,0,0-1-1H47V10a4,4,0,0,0-4-4H21a4,4,0,0,0-4,4V33H7A1,1,0,0,0,6,34Zm50-5H41V22a1,1,0,0,0-.293-.707L39.414,20l1.293-1.293A1,1,0,0,0,41,18V15H56ZM19,10a2,2,0,0,1,2-2H43a2,2,0,0,1,2,2v3H40a1,1,0,0,0-1,1v3.586l-1.707,1.707a1,1,0,0,0,0,1.414L39,22.414V30a1,1,0,0,0,1,1h5V54a2,2,0,0,1-2,2H21a2,2,0,0,1-2-2V51h5a1,1,0,0,0,1-1V46.414l1.707-1.707a1,1,0,0,0,0-1.414L25,41.586V34a1,1,0,0,0-1-1H19ZM8,35H23v7a1,1,0,0,0,.293.707L24.586,44l-1.293,1.293A1,1,0,0,0,23,46v3H8Z" style="fill:url(#New_Gradient_Swatch_2)"/><rect x="10" y="37" width="2" height="2" style="fill:url(#New_Gradient_Swatch_2-13)"/><rect x="14" y="37" width="7" height="2" style="fill:url(#New_Gradient_Swatch_2-14)"/><rect x="10" y="41" width="11" height="2" style="fill:url(#New_Gradient_Swatch_2-15)"/><rect x="10" y="45" width="11" height="2" style="fill:url(#New_Gradient_Swatch_2-15)"/><rect x="13" y="14" width="2" height="16" style="fill:url(#New_Gradient_Swatch_2-17)"/><rect x="49" y="34" width="2" height="14" style="fill:url(#New_Gradient_Swatch_2-18)"/><rect x="49" y="50" width="2" height="2" style="fill:url(#New_Gradient_Swatch_2-18)"/></g></svg>
